<svg xmlns="http://www.w3.org/2000/svg" width="204.41" height="274.976" viewBox="0 0 204.41 274.976">
  <g id="humaaans_standing-4" data-name="humaaans/standing-4" transform="translate(-31.395 -39.019)">
    <g id="humaaan-9" transform="translate(29.194 39.019)">
      <g id="Head_Front_Rad" data-name="Head/Front/Rad" transform="translate(94.203 0) rotate(4)">
        <g id="Head" transform="translate(11.234 10.573)">
          <path id="Caminho_67" data-name="Caminho 67" d="M5.46,22.792C2.415,19.218.354,14.838.7,9.929,1.691-4.213,21.377-1.1,25.207,6.036s3.374,25.243-1.575,26.519c-1.974.509-6.178-.737-10.458-3.317l2.686,19H0Z" transform="translate(0 0)" fill="#915b3c" fill-rule="evenodd"/>
        </g>
        <path id="hair" d="M38.6,21.873a4.957,4.957,0,0,1,1.033,1.92,19.423,19.423,0,0,1,.662,2.181,4.8,4.8,0,0,1-.724,4.35,4.988,4.988,0,0,1-3.3,1.431,6.071,6.071,0,0,1-2.342-.3c-.746-.245-1.389-.734-2.113-1.038a9.454,9.454,0,0,1-1.115,4.645,4.631,4.631,0,0,1-3.449,2.25,6.838,6.838,0,0,1-4.2-.846c-.327-.177-.65-.362-.96-.571a2.69,2.69,0,0,0-.833-.458c-.339-.08-.507.116-.728.364a5.53,5.53,0,0,1-.858.772,5.053,5.053,0,0,1-4.729.813A4.394,4.394,0,0,1,13.01,36c-.44-.577-.754-1.492-1.361-1.894-.258-.171-.44.055-.674.223-.352.251-.688.528-1.045.772a4.785,4.785,0,0,1-1.624.734c-.85.2-2.025.151-2.268-.963a4.6,4.6,0,0,1,.008-1.287c.04-.579.083-1.157.133-1.735a12.526,12.526,0,0,1,.169-1.293,1.892,1.892,0,0,0,.084-.888c-.123-.287-.691-.124-.934-.134a3.689,3.689,0,0,1-1.4-.309,1.51,1.51,0,0,1-.849-.786,1.412,1.412,0,0,1-.024-.739,2.2,2.2,0,0,0-.045-.758C2.534,27.256.3,27.96.023,26.807A1.8,1.8,0,0,1,.3,25.665a9.9,9.9,0,0,1,1.04-1.583A14.15,14.15,0,0,1,4.113,21.4a1.815,1.815,0,0,1-.473-3.039,2.248,2.248,0,0,1,1.651-.479,3.651,3.651,0,0,0,.683.054,1.632,1.632,0,0,1,.309-.1,9.2,9.2,0,0,1,2.532.321,8.35,8.35,0,0,1,3.862,2.02,1.191,1.191,0,0,0,.893.41c.332,0,.658-.094.99-.1a7.131,7.131,0,0,1,2.485.693,9.377,9.377,0,0,1,.814-3.306c.367-.808,1.135-.926,1.889-1,2.411-.227,4.831.026,7.245.023-2.337-.528-4.752-.746-7.068-1.368-1.047-.281-.247-.987.2-1.476a8.5,8.5,0,0,0,1.665-2.855,5.037,5.037,0,0,0,4.954,2.014,3.535,3.535,0,0,0,2.106-5.1,6.539,6.539,0,0,0-3.164-2.027c.861-.895,1.069-2.217,1.587-3.33A2.383,2.383,0,0,1,28.46,1.384a1.387,1.387,0,0,0,.626-.249c.207-.213.256-.452.52-.635a2.93,2.93,0,0,1,3.631.28,2.37,2.37,0,0,1-.08,3.107c1.122.468,3.166,1.069,2.72,2.817,2.431.161,8.334,4.1,5.071,6.986,1.791,1.012,3.436,3.485,2.286,5.666A5.543,5.543,0,0,1,38.6,21.873" transform="translate(43.615 37.668) rotate(180)" fill="#191847" fill-rule="evenodd"/>
      </g>
      <g id="Bottom_Standing_Jogging" data-name="Bottom/Standing/Jogging" transform="translate(2.201 117.036)">
        <path id="Leg" d="M135.576,0l49.1,82.094L221.5,151.5h7.929L167.742,0Z" transform="translate(-49.457 0)" fill="#784931" fill-rule="evenodd"/>
        <g id="Accessories_Shoe_Flat-Sneaker" data-name="Accessories/Shoe/Flat-Sneaker" transform="translate(166.081 144.282)">
          <path id="shoe" d="M2.152,24.172A14.189,14.189,0,0,0,1.043,28.6a33.159,33.159,0,0,0,.6,5.217H38.911q1.453-4.8-1.677-5.186t-5.2-.692L14.709,20.219a.661.661,0,0,0-.873.334l-.007.017-1.114,2.7a11.885,11.885,0,0,1-4.709,1.352A10.665,10.665,0,0,1,3.94,23.435h0a1.322,1.322,0,0,0-1.752.651Q2.168,24.128,2.152,24.172Z" transform="translate(-1.043 -20.161)" fill="#cfc6bc" fill-rule="evenodd"/>
        </g>
        <path id="Pant" d="M206.55,140.384l15.292-4.626q-10.05-30.043-24.635-66.123T165.88,0H122.69a679.2,679.2,0,0,0,39.467,77.136A522.1,522.1,0,0,0,206.55,140.384Z" transform="translate(-44.736 0)" fill="#5c63ab" fill-rule="evenodd"/>
        <path id="Leg-2" data-name="Leg" d="M87.033,0C82.4,28.848,73.46,65.705,72.617,66.843Q71.773,67.98,11.878,87.2l1.713,6.992Q85.015,83.883,88.86,78.2C92.7,72.512,111.9,27.6,119.337,0Z" transform="translate(-4.141 0)" fill="#915b3c" fill-rule="evenodd"/>
        <path id="Pant-2" data-name="Pant" d="M34.029,81.151l3.017,11.262q53.421,4.685,65.464-6.771T129.963,0H88.779Q79.016,60.748,77.863,63.3T34.029,81.151Z" transform="translate(-12.256 0)" fill="#8991dc" fill-rule="evenodd"/>
        <g id="Accessories_Shoe_Flat-Sneaker-2" data-name="Accessories/Shoe/Flat-Sneaker" transform="translate(13.451 82.494) rotate(80)">
          <path id="shoe-2" data-name="shoe" d="M1.109,4.011A14.189,14.189,0,0,0,0,8.441a33.159,33.159,0,0,0,.6,5.217H37.868q1.453-4.8-1.677-5.186t-5.2-.692L13.666.057a.661.661,0,0,0-.873.334l-.007.017-1.114,2.7A11.885,11.885,0,0,1,6.963,4.462,10.665,10.665,0,0,1,2.9,3.273h0a1.322,1.322,0,0,0-1.752.651Q1.126,3.967,1.109,4.011Z" transform="translate(0 0)" fill="#cfc6bc" fill-rule="evenodd"/>
        </g>
      </g>
      <g id="Body_Trench-Coat" data-name="Body/Trench-Coat" transform="translate(25.935 31.997) rotate(10)">
        <path id="Skin" d="M132.567,13.086,152.516,30a56.742,56.742,0,0,1,13.893,6.744c.846.887,1.822,2.631-1.906,2.081s-7.675-.962-8.282.281,1.555,2.93.389,4.582q-1.166,1.652-9.274-9.343l-20.22-10.091ZM37.857,0,49.32,2.914Q26.3,41.609,24.7,43.814c-2.4,3.307-.657,9.69-.065,13.034-4.861.866-2.588-6.264-8.745-5.073-5.619,1.087-10.508,4.377-15.43-.663-.605-.62-.975-2.477,1.243-3.3,5.524-2.059,13.735-6.025,15.118-7.66Q19.654,36.8,37.857,0Z" transform="translate(0 52.451) rotate(-4)" fill="#915b3c" fill-rule="evenodd"/>
        <path id="Back-Arm" d="M50.059,56.592a22.656,22.656,0,0,1,8.825,1.32,2.974,2.974,0,0,1,.032,5.625q.908.662,1.832,1.317L55.43,75.711c-22.378-11.158-43.411-19.57-53-37.99C-.782,31.538.307,10.538,0,2.9L7.068,0C16.92,20.365,30.253,39.9,50.059,56.592Z" transform="translate(88.008 1.349)" fill="#69a1ac" fill-rule="evenodd"/>
        <path id="Shirt" d="M0,74.151q31.163,3.423,49.058,0c1.478-.283,1.413-6.654.728-8.394C39.112,38.659,32.09,18.822,32.09,0Q29.153,1.535,21.808.46C8.648,19.856,2.6,42.111,0,74.151Z" transform="translate(63.181 1.125)" fill="#191847" fill-rule="evenodd"/>
        <path id="Coat-Front" d="M40.166,78.48a2.971,2.971,0,0,1-.893-2.684l.344-1.952a2.975,2.975,0,0,1,2.577-2.437q.333-1.487.571-2.954c1.334-8.258-.945-16.355-.838-24.307q-15.94,13.6-28.6,46.965L.848,87.438q.714-2.654,1.48-5.242C.887,81.377-.8,77.626.415,77a14.575,14.575,0,0,1,3.973-1.373Q21.554,23.922,60.531,0h7.516C65.834,29.262,96.4,93.148,85.785,147.709c-19.615,4.38-47.619-9.249-74.878,1.64,1.014-21.972,21.332-47.785,29.259-70.87Z" transform="translate(19.155 0)" fill="#89c5cc" fill-rule="evenodd"/>
        <path id="Shade-Lapel" d="M6.094,0,2.685,10.484l6.866,7.86-6.2,6.176,15.011,25.7L0,24.572l6.094-6.228L0,11.4Z" transform="translate(76.321 0.661)" fill="rgba(0,0,0,0.1)" fill-rule="evenodd"/>
        <path id="Buttons" d="M2.643,5.287A2.643,2.643,0,1,1,5.287,2.643,2.643,2.643,0,0,1,2.643,5.287Zm3.3,15.2a2.643,2.643,0,1,1,2.643-2.643A2.643,2.643,0,0,1,5.948,20.486Zm.661,15.2a2.643,2.643,0,1,1,2.643-2.643A2.643,2.643,0,0,1,6.608,35.685Z" transform="translate(87.632 55.51)" fill="rgba(0,0,0,0.4)" fill-rule="evenodd"/>
      </g>
    </g>
  </g>
</svg>
